<svg width="71" height="71" viewBox="0 0 71 71" fill="none" xmlns="http://www.w3.org/2000/svg">
<path d="M0 35.3552L35.3553 -0.000113845L70.7107 35.3552L35.3553 70.7106L0 35.3552Z" fill="#FFC482"/>
<path d="M38.7754 35.3554L38.9194 23.6554L38.7754 10.2274C38.7754 10.2274 39.0514 10.2034 39.6034 10.1554C40.1554 10.1074 40.8754 10.0474 41.7634 9.97539C42.6754 9.90339 43.6474 9.84339 44.6794 9.79539C45.7354 9.74739 46.7554 9.72339 47.7394 9.72339C50.0914 9.72339 51.9154 10.4434 53.2114 11.8834C54.5074 13.3234 55.1554 15.4834 55.1554 18.3634C55.1554 20.1634 54.9154 21.6514 54.4354 22.8274C53.9794 23.9794 53.3554 24.8914 52.5634 25.5634C51.7954 26.2114 50.9314 26.6794 49.9714 26.9674C49.0114 27.2314 48.0154 27.3634 46.9834 27.3634C46.1434 27.3634 45.3274 27.3394 44.5354 27.2914C43.7434 27.2434 43.2274 27.2074 42.9874 27.1834V35.3554H38.7754ZM47.1634 23.9074C48.5074 23.9074 49.3954 23.7034 49.8274 23.2954C50.1634 22.9594 50.4034 22.3594 50.5474 21.4954C50.6914 20.6314 50.7634 19.4794 50.7634 18.0394C50.7634 16.8634 50.7034 15.9754 50.5834 15.3754C50.4634 14.7754 50.3194 14.3554 50.1514 14.1154C50.0074 13.8514 49.8634 13.6594 49.7194 13.5394C49.5274 13.3954 49.1794 13.2754 48.6754 13.1794C48.1954 13.0594 47.6074 12.9994 46.9114 12.9994C46.1434 12.9994 45.3994 13.0354 44.6794 13.1074C43.9834 13.1794 43.4194 13.2514 42.9874 13.3234V23.5474C43.1794 23.5954 43.6714 23.6674 44.4634 23.7634C45.2794 23.8594 46.1794 23.9074 47.1634 23.9074Z" fill="#66999B"/>
<g filter="url(#filter0_b)">
<path d="M19.7754 59.3554L19.9194 47.6554L19.7754 34.2274C19.7754 34.2274 20.0514 34.2034 20.6034 34.1554C21.1554 34.1074 21.8754 34.0474 22.7634 33.9754C23.6754 33.9034 24.6474 33.8434 25.6794 33.7954C26.7354 33.7474 27.7554 33.7234 28.7394 33.7234C31.0914 33.7234 32.9154 34.4434 34.2114 35.8834C35.5074 37.3234 36.1554 39.4834 36.1554 42.3634C36.1554 44.1634 35.9154 45.6514 35.4354 46.8274C34.9794 47.9794 34.3554 48.8914 33.5634 49.5634C32.7954 50.2114 31.9314 50.6794 30.9714 50.9674C30.0114 51.2314 29.0154 51.3634 27.9834 51.3634C27.1434 51.3634 26.3274 51.3394 25.5354 51.2914C24.7434 51.2434 24.2274 51.2074 23.9874 51.1834V59.3554H19.7754ZM28.1634 47.9074C29.5074 47.9074 30.3954 47.7034 30.8274 47.2954C31.1634 46.9594 31.4034 46.3594 31.5474 45.4954C31.6914 44.6314 31.7634 43.4794 31.7634 42.0394C31.7634 40.8634 31.7034 39.9754 31.5834 39.3754C31.4634 38.7754 31.3194 38.3554 31.1514 38.1154C31.0074 37.8514 30.8634 37.6594 30.7194 37.5394C30.5274 37.3954 30.1794 37.2754 29.6754 37.1794C29.1954 37.0594 28.6074 36.9994 27.9114 36.9994C27.1434 36.9994 26.3994 37.0354 25.6794 37.1074C24.9834 37.1794 24.4194 37.2514 23.9874 37.3234V47.5474C24.1794 47.5954 24.6714 47.6674 25.4634 47.7634C26.2794 47.8594 27.1794 47.9074 28.1634 47.9074Z" fill="white"/>
</g>
<defs>
<filter id="filter0_b" x="15.7754" y="29.7234" width="24.38" height="33.632" filterUnits="userSpaceOnUse" color-interpolation-filters="sRGB">
<feFlood flood-opacity="0" result="BackgroundImageFix"/>
<feGaussianBlur in="BackgroundImage" stdDeviation="2"/>
<feComposite in2="SourceAlpha" operator="in" result="effect1_backgroundBlur"/>
<feBlend mode="normal" in="SourceGraphic" in2="effect1_backgroundBlur" result="shape"/>
</filter>
</defs>
</svg>
